<svg width="14" height="14" viewBox="0 0 14 14" fill="none" xmlns="http://www.w3.org/2000/svg">
<path d="M1.00248 11.1482C1.10971 12.1081 1.87707 12.8751 2.83658 12.9861C3.9208 13.1115 5.04115 13.2352 6.18744 13.2352C7.33373 13.2352 8.45407 13.1115 9.53829 12.9861C10.4978 12.8751 11.2652 12.1081 11.3724 11.1482C11.4929 10.0691 11.6093 8.95414 11.6093 7.81341C11.6093 6.67269 11.4929 5.55774 11.3724 4.47866C11.2652 3.51872 10.4978 2.75173 9.53829 2.64074C8.45407 2.51532 7.33373 2.3916 6.18744 2.3916C5.04115 2.3916 3.9208 2.51532 2.83658 2.64074C1.87707 2.75173 1.10971 3.51872 1.00248 4.47866C0.88194 5.55774 0.765625 6.67269 0.765625 7.81341C0.765625 8.95414 0.88194 10.0691 1.00248 11.1482Z" fill="white"/>
<path d="M5.42369 3.1594C5.83748 3.14076 6.15782 2.7902 6.13918 2.37641C6.12054 1.96261 5.76999 1.64228 5.35619 1.66092L5.42369 3.1594ZM12.3333 8.80509C12.3541 8.3914 12.0355 8.03921 11.6218 8.01846C11.2081 7.9977 10.8559 8.31624 10.8352 8.72994L12.3333 8.80509ZM2.83659 2.64066L2.92277 3.38569L2.83659 2.64066ZM2.83658 12.986L2.7504 13.731L2.83658 12.986ZM6.18744 12.4852C5.0899 12.4852 4.00953 12.3667 2.92277 12.241L2.7504 13.731C3.83208 13.8562 4.99239 13.9852 6.18744 13.9852V12.4852ZM9.45211 12.241C8.36535 12.3667 7.28498 12.4852 6.18744 12.4852V13.9852C7.38248 13.9852 8.5428 13.8562 9.62448 13.731L9.45211 12.241ZM0.257113 4.39532C0.136664 5.47361 0.015625 6.62618 0.015625 7.81333H1.51562C1.51562 6.71904 1.62722 5.64171 1.74784 4.56184L0.257113 4.39532ZM0.015625 7.81333C0.015625 9.00049 0.136664 10.1531 0.257114 11.2314L1.74784 11.0648C1.62722 9.98496 1.51562 8.90763 1.51562 7.81333H0.015625ZM2.92277 3.38569C3.75519 3.2894 4.58384 3.19723 5.42369 3.1594L5.35619 1.66092C4.45744 1.7014 3.58079 1.79957 2.7504 1.89563L2.92277 3.38569ZM12.1178 11.2314C12.2045 10.4548 12.2914 9.63981 12.3333 8.80509L10.8352 8.72994C10.7958 9.5144 10.7137 10.289 10.627 11.0649L12.1178 11.2314ZM1.74784 4.56184C1.8161 3.95074 2.30864 3.45673 2.92277 3.38569L2.7504 1.89563C1.4455 2.04657 0.403311 3.08654 0.257113 4.39532L1.74784 4.56184ZM9.62448 13.731C10.9294 13.5801 11.9716 12.5402 12.1178 11.2314L10.627 11.0649C10.5588 11.676 10.0663 12.1699 9.45211 12.241L9.62448 13.731ZM2.92277 12.241C2.30864 12.1699 1.8161 11.6759 1.74784 11.0648L0.257114 11.2314C0.403311 12.5401 1.4455 13.5801 2.7504 13.731L2.92277 12.241Z" fill="#4147D5"/>
<path d="M10.1085 1.30268L6.42359 5.48384L5.91877 7.85816C5.83754 8.2402 6.23577 8.60169 6.60871 8.48445L8.97152 7.74164L12.7776 3.73673C13.4098 3.07156 13.2995 1.95902 12.5343 1.28221C11.787 0.62125 10.701 0.630416 10.1085 1.30268Z" fill="#D7E0FF"/>
<path d="M6.42359 5.48384L5.83255 4.96104C5.759 5.0445 5.70831 5.1461 5.6846 5.25763L6.42359 5.48384ZM10.1085 1.30268L10.6995 1.82549L10.6995 1.82549L10.1085 1.30268ZM12.7776 3.73673L13.3525 4.27717L12.7776 3.73673ZM8.97152 7.74164L9.26758 8.45473C9.3752 8.4209 9.47066 8.36179 9.54641 8.28209L8.97152 7.74164ZM6.60871 8.48445L6.31265 7.77136L6.31265 7.77136L6.60871 8.48445ZM5.91877 7.85816L5.17978 7.63196L5.17978 7.63196L5.91877 7.85816ZM12.5343 1.28221L12.0657 1.81396L12.5343 1.28221ZM7.01463 6.00665L10.6995 1.82549L9.51747 0.779876L5.83255 4.96104L7.01463 6.00665ZM12.2027 3.19628L8.39662 7.2012L9.54641 8.28209L13.3525 4.27717L12.2027 3.19628ZM8.67546 7.02855L6.31265 7.77136L6.90477 9.19754L9.26758 8.45473L8.67546 7.02855ZM6.65776 8.08437L7.16258 5.71005L5.6846 5.25763L5.17978 7.63196L6.65776 8.08437ZM6.31265 7.77136C6.49947 7.71263 6.6983 7.89371 6.65776 8.08437L5.17978 7.63196C4.97678 8.58669 5.97208 9.49076 6.90477 9.19754L6.31265 7.77136ZM13.3525 4.27717C14.2608 3.32144 14.1023 1.72291 13.0029 0.750456L12.0657 1.81396C12.4966 2.19512 12.5587 2.82168 12.2027 3.19628L13.3525 4.27717ZM10.6995 1.82549C11.0332 1.44688 11.6448 1.44172 12.0657 1.81396L13.0029 0.750456C11.9292 -0.199221 10.3688 -0.186052 9.51747 0.779877L10.6995 1.82549Z" fill="#4147D5"/>
</svg>
