<svg width="32" height="32" viewBox="0 0 32 32" fill="none" xmlns="http://www.w3.org/2000/svg">
<path d="M17.0343 15.7773C16.7083 15.9189 16.3567 15.9919 16.0013 15.9919C15.646 15.9919 15.2944 15.9189 14.9684 15.7773L2.44091 9.97511C2.23748 9.8725 2.06653 9.71544 1.94709 9.52142C1.82765 9.32741 1.7644 9.10404 1.7644 8.8762C1.7644 8.64837 1.82765 8.425 1.94709 8.23098C2.06653 8.03696 2.23748 7.87991 2.44091 7.7773L14.9684 1.93115C15.2944 1.7896 15.646 1.71655 16.0013 1.71655C16.3567 1.71655 16.7083 1.7896 17.0343 1.93115L29.5618 7.73335C29.7652 7.83595 29.9362 7.99301 30.0556 8.18703C30.1751 8.38104 30.2383 8.60441 30.2383 8.83225C30.2383 9.06008 30.1751 9.28345 30.0556 9.47747C29.9362 9.67149 29.7652 9.82854 29.5618 9.93115L17.0343 15.7773Z" fill="#D7E0FF" stroke="#4147D5" stroke-width="3.42857" stroke-linecap="round" stroke-linejoin="round"/>
<path d="M30.2858 16.7661L16.8792 22.9419C16.5929 23.0725 16.2818 23.1401 15.9671 23.1401C15.6524 23.1401 15.3413 23.0725 15.055 22.9419L1.71436 16.7661" stroke="#4147D5" stroke-width="3.42857" stroke-linecap="round" stroke-linejoin="round"/>
<path d="M30.2858 23.9089L16.8792 30.0848C16.5929 30.2154 16.2818 30.283 15.9671 30.283C15.6524 30.283 15.3413 30.2154 15.055 30.0848L1.71436 23.9089" stroke="#4147D5" stroke-width="3.42857" stroke-linecap="round" stroke-linejoin="round"/>
</svg>
