<svg width="14" height="14" viewBox="0 0 14 14" fill="none" xmlns="http://www.w3.org/2000/svg">
<path d="M1.03167 10.5367C1.15058 11.4945 1.92435 12.2511 2.88428 12.3515C4.21258 12.4903 5.58924 12.6369 7 12.6369C8.41076 12.6369 9.78742 12.4903 11.1157 12.3515C12.0756 12.2511 12.8494 11.4945 12.9683 10.5367C13.1103 9.39313 13.25 8.21051 13.25 6.99998C13.25 5.78944 13.1103 4.60683 12.9683 3.46329C12.8494 2.50549 12.0756 1.74885 11.1157 1.6485C9.78742 1.50965 8.41076 1.36304 7 1.36304C5.58924 1.36304 4.21257 1.50965 2.88428 1.6485C1.92435 1.74885 1.15058 2.50549 1.03166 3.46329C0.88969 4.60683 0.75 5.78944 0.75 6.99998C0.75 8.21051 0.88969 9.39312 1.03167 10.5367Z" fill="#D7E0FF" stroke="#4147D5" stroke-width="1.5" stroke-linejoin="round"/>
<path d="M1.05957 3.20435L5.76169 6.91181C6.48793 7.48443 7.51207 7.48443 8.23831 6.91181L12.9404 3.20435" stroke="#4147D5" stroke-width="1.5" stroke-linejoin="round"/>
</svg>
