<svg width="32" height="32" viewBox="0 0 32 32" fill="none" xmlns="http://www.w3.org/2000/svg">
<path d="M5.58289 25.3802C5.77122 27.5693 7.46697 29.3562 9.65744 29.5282C13.9756 29.8673 18.0244 29.8673 22.3426 29.5282C24.533 29.3562 26.2288 27.5693 26.4171 25.3802C26.6775 22.3528 26.9463 19.2152 26.9463 15.9998C26.9463 12.7844 26.6775 9.64674 26.4171 6.61938C26.2288 4.43025 24.533 2.64333 22.3426 2.47134C18.0244 2.13228 13.9756 2.13228 9.65744 2.47134C7.46697 2.64333 5.77122 4.43025 5.58289 6.61937C5.32246 9.64674 5.05371 12.7844 5.05371 15.9998C5.05371 19.2152 5.32246 22.3528 5.58289 25.3802Z" fill="#D7E0FF" stroke="#4147D5" stroke-width="3.42857"/>
<path d="M14.4307 23.2339H17.5699" stroke="#4147D5" stroke-width="3.42857" stroke-linecap="round" stroke-linejoin="round"/>
</svg>
