<svg width="32" height="32" viewBox="0 0 32 32" fill="none" xmlns="http://www.w3.org/2000/svg">
<path d="M9.77186 3.66896C9.65461 3.59498 9.52059 3.55591 9.38401 3.55591C9.24743 3.55591 9.11341 3.59498 8.99616 3.66896C8.89944 3.74991 8.83418 3.86551 8.81274 3.99388C8.7913 4.12224 8.81516 4.25446 8.8798 4.36548C11.2651 8.72898 11.7693 14.6699 8.51134 17.9476C7.25785 16.8349 6.26269 15.4332 5.60243 13.8504C4.39762 14.5573 3.39914 15.5993 2.71538 16.8634C2.03162 18.1274 1.68872 19.5651 1.72389 21.0205C1.92818 26.3496 5.17579 30.2392 11.4202 30.2392C17.6647 30.2392 20.9033 26.142 21.1166 21.0205C21.3687 14.8747 17.2381 7.31545 9.77186 3.66896Z" fill="#D7E0FF" stroke="#4147D5" stroke-width="3.42857" stroke-linecap="round" stroke-linejoin="round"/>
<path d="M30.2388 6.66292L21.1278 6.66246" stroke="#4147D5" stroke-width="3.42857" stroke-linecap="round" stroke-linejoin="round"/>
<path d="M25.5212 1.94409C27.5911 3.63997 28.6254 4.67404 30.239 6.66182C28.6254 8.64959 27.5911 9.68366 25.5212 11.3795" stroke="#4147D5" stroke-width="3.42857" stroke-linecap="round" stroke-linejoin="round"/>
</svg>
